<mxfile host="Electron" agent="Mozilla/5.0 (X11; Linux x86_64) AppleWebKit/537.36 (KHTML, like Gecko) draw.io/24.7.17 Chrome/128.0.6613.36 Electron/32.0.1 Safari/537.36" version="24.7.17">
  <diagram name="Page-1" id="ieFEpt_y5Hz8trDGl6M4">
    <mxGraphModel dx="3023" dy="1997" grid="1" gridSize="10" guides="1" tooltips="1" connect="1" arrows="1" fold="1" page="1" pageScale="1" pageWidth="850" pageHeight="1100" math="0" shadow="0">
      <root>
        <mxCell id="0" />
        <mxCell id="1" parent="0" />
        <mxCell id="LNbxUXv6DTY2RKpaFZB2-3" style="edgeStyle=orthogonalEdgeStyle;rounded=0;orthogonalLoop=1;jettySize=auto;html=1;exitX=1;exitY=0.5;exitDx=0;exitDy=0;entryX=0.5;entryY=0;entryDx=0;entryDy=0;" parent="1" source="LNbxUXv6DTY2RKpaFZB2-1" target="LNbxUXv6DTY2RKpaFZB2-2" edge="1">
          <mxGeometry relative="1" as="geometry" />
        </mxCell>
        <mxCell id="LNbxUXv6DTY2RKpaFZB2-1" value="S" style="triangle;whiteSpace=wrap;html=1;direction=south;" parent="1" vertex="1">
          <mxGeometry x="190" y="100" width="80" height="60" as="geometry" />
        </mxCell>
        <mxCell id="LNbxUXv6DTY2RKpaFZB2-5" style="edgeStyle=orthogonalEdgeStyle;rounded=0;orthogonalLoop=1;jettySize=auto;html=1;exitX=0.5;exitY=1;exitDx=0;exitDy=0;entryX=0.5;entryY=0;entryDx=0;entryDy=0;" parent="1" source="LNbxUXv6DTY2RKpaFZB2-2" target="LNbxUXv6DTY2RKpaFZB2-4" edge="1">
          <mxGeometry relative="1" as="geometry" />
        </mxCell>
        <mxCell id="LNbxUXv6DTY2RKpaFZB2-2" value="string" style="rounded=0;whiteSpace=wrap;html=1;" parent="1" vertex="1">
          <mxGeometry x="170" y="220" width="120" height="60" as="geometry" />
        </mxCell>
        <mxCell id="LNbxUXv6DTY2RKpaFZB2-7" style="edgeStyle=orthogonalEdgeStyle;rounded=0;orthogonalLoop=1;jettySize=auto;html=1;exitX=0.5;exitY=1;exitDx=0;exitDy=0;entryX=0.5;entryY=0;entryDx=0;entryDy=0;" parent="1" source="s6JHwugLCeO4JuujkjzI-4" target="LNbxUXv6DTY2RKpaFZB2-6" edge="1">
          <mxGeometry relative="1" as="geometry" />
        </mxCell>
        <mxCell id="LNbxUXv6DTY2RKpaFZB2-4" value="option = ingredient or step or Nutrition" style="rounded=0;whiteSpace=wrap;html=1;" parent="1" vertex="1">
          <mxGeometry x="140" y="340" width="180" height="50" as="geometry" />
        </mxCell>
        <mxCell id="LNbxUXv6DTY2RKpaFZB2-6" value="If option == ingredient" style="rhombus;whiteSpace=wrap;html=1;" parent="1" vertex="1">
          <mxGeometry x="165" y="540" width="130" height="110" as="geometry" />
        </mxCell>
        <mxCell id="s6JHwugLCeO4JuujkjzI-15" style="edgeStyle=orthogonalEdgeStyle;rounded=0;orthogonalLoop=1;jettySize=auto;html=1;exitX=0.5;exitY=1;exitDx=0;exitDy=0;entryX=0.5;entryY=0;entryDx=0;entryDy=0;" parent="1" target="s6JHwugLCeO4JuujkjzI-13" edge="1">
          <mxGeometry relative="1" as="geometry">
            <mxPoint x="565" y="870" as="sourcePoint" />
          </mxGeometry>
        </mxCell>
        <mxCell id="LNbxUXv6DTY2RKpaFZB2-9" value="True" style="edgeStyle=orthogonalEdgeStyle;rounded=0;orthogonalLoop=1;jettySize=auto;html=1;exitX=1;exitY=0.5;exitDx=0;exitDy=0;entryX=0.472;entryY=-0.002;entryDx=0;entryDy=0;entryPerimeter=0;" parent="1" source="LNbxUXv6DTY2RKpaFZB2-6" edge="1">
          <mxGeometry relative="1" as="geometry">
            <mxPoint x="555.2000000000003" y="759.7800000000002" as="targetPoint" />
          </mxGeometry>
        </mxCell>
        <mxCell id="LNbxUXv6DTY2RKpaFZB2-32" value="False" style="edgeStyle=orthogonalEdgeStyle;rounded=0;orthogonalLoop=1;jettySize=auto;html=1;exitX=0;exitY=0.5;exitDx=0;exitDy=0;entryX=0.5;entryY=0;entryDx=0;entryDy=0;" parent="1" source="LNbxUXv6DTY2RKpaFZB2-10" target="LNbxUXv6DTY2RKpaFZB2-27" edge="1">
          <mxGeometry relative="1" as="geometry" />
        </mxCell>
        <mxCell id="LNbxUXv6DTY2RKpaFZB2-10" value="For i in range of (string)" style="rhombus;whiteSpace=wrap;html=1;" parent="1" vertex="1">
          <mxGeometry x="900" y="1330" width="160" height="100" as="geometry" />
        </mxCell>
        <mxCell id="LNbxUXv6DTY2RKpaFZB2-14" style="edgeStyle=orthogonalEdgeStyle;rounded=0;orthogonalLoop=1;jettySize=auto;html=1;exitX=0.5;exitY=1;exitDx=0;exitDy=0;entryX=0.5;entryY=0;entryDx=0;entryDy=0;" parent="1" source="LNbxUXv6DTY2RKpaFZB2-12" target="LNbxUXv6DTY2RKpaFZB2-10" edge="1">
          <mxGeometry relative="1" as="geometry">
            <Array as="points">
              <mxPoint x="1130" y="2350" />
              <mxPoint x="2105" y="2350" />
              <mxPoint x="2105" y="1310" />
              <mxPoint x="980" y="1310" />
            </Array>
          </mxGeometry>
        </mxCell>
        <mxCell id="LNbxUXv6DTY2RKpaFZB2-12" value="&lt;div&gt;result.Append($@&quot;&lt;br&gt;&amp;lt;li class=&quot;list-group-item&quot;&amp;gt;&lt;/div&gt;&lt;div&gt;&amp;nbsp; &amp;nbsp; &amp;nbsp; &amp;nbsp; &amp;nbsp; &amp;nbsp; &amp;lt;input class=&quot;form-check-input&quot; type=&quot;checkbox&quot; onclick=&quot;toggleStrikethrough(this)&quot; /&amp;gt;&amp;nbsp;&lt;/div&gt;&lt;div&gt;&amp;nbsp; &amp;nbsp; &amp;nbsp; &amp;nbsp; &amp;nbsp; &amp;nbsp; &amp;lt;span&amp;gt; &lt;span style=&quot;background-color: rgb(255, 255, 0);&quot;&gt;&lt;font color=&quot;#030101&quot;&gt;string[i]&lt;/font&gt;&lt;/span&gt; &amp;lt;/span&amp;gt;&lt;/div&gt;&lt;div&gt;&amp;nbsp; &amp;nbsp; &amp;nbsp; &amp;nbsp; &amp;lt;/li&amp;gt;&lt;/div&gt;&lt;div&gt;&quot;);&lt;br&gt;&lt;/div&gt;" style="rounded=0;whiteSpace=wrap;html=1;align=left;" parent="1" vertex="1">
          <mxGeometry x="830" y="2290" width="530" height="140" as="geometry" />
        </mxCell>
        <mxCell id="LNbxUXv6DTY2RKpaFZB2-17" value="True" style="edgeStyle=orthogonalEdgeStyle;rounded=0;orthogonalLoop=1;jettySize=auto;html=1;exitX=1;exitY=0.5;exitDx=0;exitDy=0;entryX=0.5;entryY=0;entryDx=0;entryDy=0;" parent="1" source="LNbxUXv6DTY2RKpaFZB2-10" target="LNbxUXv6DTY2RKpaFZB2-16" edge="1">
          <mxGeometry relative="1" as="geometry">
            <mxPoint x="1060" y="1380" as="sourcePoint" />
            <mxPoint x="1290" y="1730" as="targetPoint" />
          </mxGeometry>
        </mxCell>
        <mxCell id="LNbxUXv6DTY2RKpaFZB2-18" value="False" style="edgeStyle=orthogonalEdgeStyle;rounded=0;orthogonalLoop=1;jettySize=auto;html=1;exitX=0;exitY=0.5;exitDx=0;exitDy=0;entryX=0.5;entryY=0;entryDx=0;entryDy=0;" parent="1" source="LNbxUXv6DTY2RKpaFZB2-16" target="LNbxUXv6DTY2RKpaFZB2-12" edge="1">
          <mxGeometry x="-0.9006" relative="1" as="geometry">
            <Array as="points">
              <mxPoint x="1095" y="1490" />
              <mxPoint x="1095" y="2180" />
            </Array>
            <mxPoint as="offset" />
          </mxGeometry>
        </mxCell>
        <mxCell id="LNbxUXv6DTY2RKpaFZB2-16" value="if string[i] == optionnal" style="rhombus;whiteSpace=wrap;html=1;" parent="1" vertex="1">
          <mxGeometry x="1215" y="1420" width="185" height="140" as="geometry" />
        </mxCell>
        <mxCell id="LNbxUXv6DTY2RKpaFZB2-25" value="True" style="edgeStyle=orthogonalEdgeStyle;rounded=0;orthogonalLoop=1;jettySize=auto;html=1;exitX=1;exitY=0.5;exitDx=0;exitDy=0;entryX=0.5;entryY=0;entryDx=0;entryDy=0;" parent="1" source="LNbxUXv6DTY2RKpaFZB2-19" target="LNbxUXv6DTY2RKpaFZB2-24" edge="1">
          <mxGeometry relative="1" as="geometry" />
        </mxCell>
        <mxCell id="LNbxUXv6DTY2RKpaFZB2-29" value="False" style="edgeStyle=orthogonalEdgeStyle;rounded=0;orthogonalLoop=1;jettySize=auto;html=1;exitX=0;exitY=0.5;exitDx=0;exitDy=0;entryX=0.5;entryY=0;entryDx=0;entryDy=0;" parent="1" source="LNbxUXv6DTY2RKpaFZB2-19" target="LNbxUXv6DTY2RKpaFZB2-28" edge="1">
          <mxGeometry relative="1" as="geometry" />
        </mxCell>
        <mxCell id="LNbxUXv6DTY2RKpaFZB2-19" value="For j in range of (i+1,string)" style="rhombus;whiteSpace=wrap;html=1;" parent="1" vertex="1">
          <mxGeometry x="1385" y="1760" width="220" height="140" as="geometry" />
        </mxCell>
        <mxCell id="LNbxUXv6DTY2RKpaFZB2-22" value="True" style="edgeStyle=orthogonalEdgeStyle;rounded=0;orthogonalLoop=1;jettySize=auto;html=1;exitX=1;exitY=0.5;exitDx=0;exitDy=0;entryX=0.5;entryY=0;entryDx=0;entryDy=0;" parent="1" source="LNbxUXv6DTY2RKpaFZB2-16" target="LNbxUXv6DTY2RKpaFZB2-21" edge="1">
          <mxGeometry relative="1" as="geometry">
            <mxPoint x="1360" y="1490" as="sourcePoint" />
            <mxPoint x="1495" y="1760" as="targetPoint" />
          </mxGeometry>
        </mxCell>
        <mxCell id="LNbxUXv6DTY2RKpaFZB2-23" style="edgeStyle=orthogonalEdgeStyle;rounded=0;orthogonalLoop=1;jettySize=auto;html=1;exitX=0.5;exitY=1;exitDx=0;exitDy=0;entryX=0.5;entryY=0;entryDx=0;entryDy=0;" parent="1" source="LNbxUXv6DTY2RKpaFZB2-21" target="LNbxUXv6DTY2RKpaFZB2-19" edge="1">
          <mxGeometry relative="1" as="geometry" />
        </mxCell>
        <mxCell id="LNbxUXv6DTY2RKpaFZB2-21" value="&lt;div&gt;&lt;div&gt;result.Append($@&quot;&lt;span style=&quot;background-color: initial;&quot;&gt;&amp;nbsp;&lt;/span&gt;&amp;lt;div class=&quot;dish-optional-ingredients&quot;&amp;gt;&lt;/div&gt;&lt;div&gt;&amp;nbsp; &amp;nbsp; &amp;nbsp; &amp;nbsp; &amp;nbsp; &amp;nbsp; &amp;lt;h3&amp;gt;Optional:&amp;lt;/h3&amp;gt;&lt;/div&gt;&lt;div&gt;&amp;nbsp; &amp;nbsp; &amp;nbsp; &amp;nbsp; &amp;nbsp; &amp;nbsp; &amp;lt;ul&amp;gt;&lt;/div&gt;&lt;/div&gt;&lt;div&gt;&quot;);&amp;nbsp;&lt;br&gt;&lt;/div&gt;" style="rounded=0;whiteSpace=wrap;html=1;align=left;" parent="1" vertex="1">
          <mxGeometry x="1382.5" y="1570" width="225" height="100" as="geometry" />
        </mxCell>
        <mxCell id="LNbxUXv6DTY2RKpaFZB2-26" style="edgeStyle=orthogonalEdgeStyle;rounded=0;orthogonalLoop=1;jettySize=auto;html=1;exitX=0.5;exitY=1;exitDx=0;exitDy=0;entryX=0.5;entryY=0;entryDx=0;entryDy=0;" parent="1" source="LNbxUXv6DTY2RKpaFZB2-24" target="LNbxUXv6DTY2RKpaFZB2-19" edge="1">
          <mxGeometry relative="1" as="geometry">
            <Array as="points">
              <mxPoint x="1735" y="2130" />
              <mxPoint x="2035" y="2130" />
              <mxPoint x="2035" y="1740" />
              <mxPoint x="1495" y="1740" />
            </Array>
          </mxGeometry>
        </mxCell>
        <mxCell id="LNbxUXv6DTY2RKpaFZB2-24" value="&lt;div&gt;&lt;div&gt;result.Append($@&quot;&amp;lt;li class=&quot;list-group-item&quot;&amp;gt;&lt;/div&gt;&lt;div&gt;&amp;nbsp; &amp;nbsp; &amp;nbsp; &amp;nbsp; &amp;nbsp; &amp;nbsp; &amp;lt;input class=&quot;form-check-input&quot; type=&quot;checkbox&quot; onclick=&quot;toggleStrikethrough(this)&quot; /&amp;gt;&amp;nbsp;&lt;/div&gt;&lt;div style=&quot;&quot;&gt;&amp;nbsp; &amp;nbsp; &amp;nbsp; &amp;nbsp; &amp;nbsp; &amp;nbsp; &amp;lt;span&amp;gt; string[i] &amp;lt;/span&amp;gt;&lt;/div&gt;&lt;div&gt;&amp;nbsp; &amp;nbsp; &amp;nbsp; &amp;nbsp; &amp;lt;/li&amp;gt;&lt;/div&gt;&lt;/div&gt;&lt;div style=&quot;&quot;&gt;&quot;);&lt;br&gt;&lt;/div&gt;" style="rounded=0;whiteSpace=wrap;html=1;align=left;" parent="1" vertex="1">
          <mxGeometry x="1455" y="1960" width="560" height="110" as="geometry" />
        </mxCell>
        <mxCell id="LNbxUXv6DTY2RKpaFZB2-37" style="edgeStyle=orthogonalEdgeStyle;rounded=0;orthogonalLoop=1;jettySize=auto;html=1;exitX=0.5;exitY=1;exitDx=0;exitDy=0;entryX=0.5;entryY=0;entryDx=0;entryDy=0;" parent="1" source="LNbxUXv6DTY2RKpaFZB2-27" target="LNbxUXv6DTY2RKpaFZB2-36" edge="1">
          <mxGeometry relative="1" as="geometry" />
        </mxCell>
        <mxCell id="LNbxUXv6DTY2RKpaFZB2-27" value="&lt;div&gt;result.Append($@&quot;&amp;lt;/ul&amp;gt;&lt;/div&gt;&lt;div&gt;&amp;lt;/div&amp;gt;&quot;);&lt;/div&gt;" style="rounded=0;whiteSpace=wrap;html=1;align=left;" parent="1" vertex="1">
          <mxGeometry x="595" y="1455" width="110" height="70" as="geometry" />
        </mxCell>
        <mxCell id="LNbxUXv6DTY2RKpaFZB2-34" style="edgeStyle=orthogonalEdgeStyle;rounded=0;orthogonalLoop=1;jettySize=auto;html=1;exitX=0.5;exitY=1;exitDx=0;exitDy=0;entryX=0.5;entryY=0;entryDx=0;entryDy=0;" parent="1" source="LNbxUXv6DTY2RKpaFZB2-28" target="LNbxUXv6DTY2RKpaFZB2-10" edge="1">
          <mxGeometry relative="1" as="geometry">
            <Array as="points">
              <mxPoint x="1268" y="2170" />
              <mxPoint x="2090" y="2170" />
              <mxPoint x="2090" y="1280" />
              <mxPoint x="980" y="1280" />
            </Array>
          </mxGeometry>
        </mxCell>
        <mxCell id="LNbxUXv6DTY2RKpaFZB2-28" value="&lt;div&gt;&lt;div&gt;&lt;span style=&quot;text-align: left;&quot;&gt;result.Append($@&quot;&lt;/span&gt;&amp;nbsp; &amp;nbsp; &amp;nbsp; &amp;nbsp; &amp;nbsp; &amp;nbsp; &amp;lt;/ul&amp;gt;&lt;/div&gt;&lt;div&gt;&amp;nbsp; &amp;nbsp; &amp;nbsp; &amp;nbsp; &amp;nbsp; &amp;lt;/div&amp;gt;&quot;);&lt;/div&gt;&lt;/div&gt;" style="rounded=0;whiteSpace=wrap;html=1;" parent="1" vertex="1">
          <mxGeometry x="1207.5" y="1900" width="120" height="60" as="geometry" />
        </mxCell>
        <mxCell id="LNbxUXv6DTY2RKpaFZB2-31" value="&lt;div&gt;&lt;span style=&quot;background-color: initial;&quot;&gt;result.Append($@&quot;&lt;/span&gt;&lt;span style=&quot;background-color: initial;&quot;&gt;&amp;nbsp;&lt;/span&gt;&amp;nbsp; &amp;nbsp; &amp;nbsp; &amp;nbsp; &lt;br&gt;&amp;lt;div class=&quot;dish-warning-panel&quot;&amp;gt;&lt;/div&gt;&lt;div&gt;&amp;nbsp; &amp;nbsp; &amp;nbsp; &amp;nbsp; &amp;nbsp; &amp;lt;img src=&quot;attention.png&quot; alt=&quot;Warning&quot; /&amp;gt;&lt;/div&gt;&lt;div&gt;&amp;nbsp; &amp;nbsp; &amp;nbsp; &amp;nbsp; &amp;lt;/div&amp;gt;&lt;/div&gt;&lt;div&gt;&lt;span style=&quot;white-space: pre;&quot;&gt;&#x9;&lt;/span&gt;&amp;lt;p&amp;gt; may contains allergy such as @itemD.AllergnList&amp;lt;/p&amp;gt;&lt;br&gt;&lt;/div&gt;&lt;div&gt;&amp;nbsp; &amp;nbsp; &amp;nbsp; &amp;nbsp;&amp;lt;/section&amp;gt;&lt;br&gt;&quot;);&lt;br&gt;&lt;/div&gt;" style="rounded=0;whiteSpace=wrap;html=1;align=left;" parent="1" vertex="1">
          <mxGeometry x="735" y="1720" width="350" height="150" as="geometry" />
        </mxCell>
        <mxCell id="LNbxUXv6DTY2RKpaFZB2-33" value="E" style="triangle;whiteSpace=wrap;html=1;direction=south;" parent="1" vertex="1">
          <mxGeometry x="870" y="2040" width="80" height="60" as="geometry" />
        </mxCell>
        <mxCell id="LNbxUXv6DTY2RKpaFZB2-35" value="i = len(string)&amp;nbsp;" style="rounded=0;whiteSpace=wrap;html=1;" parent="1" vertex="1">
          <mxGeometry x="1205" y="1980" width="120" height="60" as="geometry" />
        </mxCell>
        <mxCell id="lATZ4-c1al1JPZafrdWQ-1" value="True" style="edgeStyle=orthogonalEdgeStyle;rounded=0;orthogonalLoop=1;jettySize=auto;html=1;exitX=1;exitY=0.5;exitDx=0;exitDy=0;entryX=0.5;entryY=0;entryDx=0;entryDy=0;" parent="1" source="LNbxUXv6DTY2RKpaFZB2-36" target="LNbxUXv6DTY2RKpaFZB2-31" edge="1">
          <mxGeometry relative="1" as="geometry" />
        </mxCell>
        <mxCell id="LNbxUXv6DTY2RKpaFZB2-36" value="If @itemD.Allergn == 1" style="rhombus;whiteSpace=wrap;html=1;" parent="1" vertex="1">
          <mxGeometry x="565" y="1570" width="170" height="80" as="geometry" />
        </mxCell>
        <mxCell id="lATZ4-c1al1JPZafrdWQ-3" value="E" style="triangle;whiteSpace=wrap;html=1;direction=south;" parent="1" vertex="1">
          <mxGeometry x="465" y="1810" width="80" height="60" as="geometry" />
        </mxCell>
        <mxCell id="s6JHwugLCeO4JuujkjzI-1" value="Becaue in the string&amp;nbsp;&lt;div&gt;&amp;nbsp;will put the word optional&lt;/div&gt;" style="ellipse;shape=cloud;whiteSpace=wrap;html=1;" parent="1" vertex="1">
          <mxGeometry x="1355" y="1350" width="180" height="120" as="geometry" />
        </mxCell>
        <mxCell id="s6JHwugLCeO4JuujkjzI-30" style="edgeStyle=orthogonalEdgeStyle;rounded=0;orthogonalLoop=1;jettySize=auto;html=1;exitX=0.5;exitY=1;exitDx=0;exitDy=0;entryX=0.5;entryY=0;entryDx=0;entryDy=0;" parent="1" source="s6JHwugLCeO4JuujkjzI-2" target="s6JHwugLCeO4JuujkjzI-27" edge="1">
          <mxGeometry relative="1" as="geometry" />
        </mxCell>
        <mxCell id="s6JHwugLCeO4JuujkjzI-2" value="&lt;span style=&quot;white-space: pre;&quot;&gt;&#x9;&lt;/span&gt; result.Append($@&quot;&lt;span style=&quot;background-color: initial;&quot;&gt;&amp;nbsp;&lt;/span&gt;&lt;div&gt;&lt;div&gt;&amp;lt;!-- Preparation Section --&amp;gt;&lt;/div&gt;&lt;div&gt;&amp;nbsp; &amp;nbsp; &amp;nbsp; &amp;lt;h2 class=&quot;dish-ingredients-title&quot;&amp;gt;Preparation&amp;lt;/h2&amp;gt;&lt;/div&gt;&lt;div&gt;&amp;nbsp; &amp;nbsp; &amp;nbsp; &amp;lt;section class=&quot;dish-preparation-section&quot;&amp;gt;&lt;/div&gt;&lt;div&gt;&amp;nbsp; &amp;nbsp; &amp;nbsp; &amp;nbsp; &amp;lt;div class=&quot;dish-preparation-steps&quot;&amp;gt;&quot;);&lt;/div&gt;&lt;div&gt;&lt;br&gt;&lt;/div&gt;&lt;/div&gt;" style="rounded=0;whiteSpace=wrap;html=1;align=left;" parent="1" vertex="1">
          <mxGeometry x="-330" y="1190" width="270" height="160" as="geometry" />
        </mxCell>
        <mxCell id="s6JHwugLCeO4JuujkjzI-5" value="" style="edgeStyle=orthogonalEdgeStyle;rounded=0;orthogonalLoop=1;jettySize=auto;html=1;exitX=0.5;exitY=1;exitDx=0;exitDy=0;entryX=0.5;entryY=0;entryDx=0;entryDy=0;" parent="1" source="LNbxUXv6DTY2RKpaFZB2-4" target="s6JHwugLCeO4JuujkjzI-4" edge="1">
          <mxGeometry relative="1" as="geometry">
            <mxPoint x="230" y="390" as="sourcePoint" />
            <mxPoint x="230" y="540" as="targetPoint" />
          </mxGeometry>
        </mxCell>
        <mxCell id="s6JHwugLCeO4JuujkjzI-4" value="&lt;div&gt;&amp;nbsp;var result = new System.Text.StringBuilder();&lt;/div&gt;&lt;div&gt;&lt;br&gt;&lt;/div&gt;" style="rounded=0;whiteSpace=wrap;html=1;align=left;" parent="1" vertex="1">
          <mxGeometry x="125" y="420" width="210" height="60" as="geometry" />
        </mxCell>
        <mxCell id="s6JHwugLCeO4JuujkjzI-14" value="False" style="edgeStyle=orthogonalEdgeStyle;rounded=0;orthogonalLoop=1;jettySize=auto;html=1;exitX=0;exitY=0.5;exitDx=0;exitDy=0;entryX=0.5;entryY=0;entryDx=0;entryDy=0;" parent="1" source="s6JHwugLCeO4JuujkjzI-13" target="LNbxUXv6DTY2RKpaFZB2-10" edge="1">
          <mxGeometry relative="1" as="geometry" />
        </mxCell>
        <mxCell id="s6JHwugLCeO4JuujkjzI-13" value="If len(string) == 0" style="rhombus;whiteSpace=wrap;html=1;" parent="1" vertex="1">
          <mxGeometry x="1065" y="990" width="180" height="80" as="geometry" />
        </mxCell>
        <mxCell id="s6JHwugLCeO4JuujkjzI-16" value="E" style="triangle;whiteSpace=wrap;html=1;direction=south;" parent="1" vertex="1">
          <mxGeometry x="1325" y="1190" width="80" height="60" as="geometry" />
        </mxCell>
        <mxCell id="s6JHwugLCeO4JuujkjzI-20" style="edgeStyle=orthogonalEdgeStyle;rounded=0;orthogonalLoop=1;jettySize=auto;html=1;exitX=0.5;exitY=0;exitDx=0;exitDy=0;exitPerimeter=0;entryX=0;entryY=0.5;entryDx=0;entryDy=0;" parent="1" source="s6JHwugLCeO4JuujkjzI-18" target="s6JHwugLCeO4JuujkjzI-16" edge="1">
          <mxGeometry relative="1" as="geometry" />
        </mxCell>
        <mxCell id="s6JHwugLCeO4JuujkjzI-18" value="&amp;nbsp;return string.Empty;" style="shape=card;whiteSpace=wrap;html=1;direction=west;" parent="1" vertex="1">
          <mxGeometry x="1285" y="1080" width="160" height="70" as="geometry" />
        </mxCell>
        <mxCell id="s6JHwugLCeO4JuujkjzI-19" style="edgeStyle=orthogonalEdgeStyle;rounded=0;orthogonalLoop=1;jettySize=auto;html=1;exitX=1;exitY=0.5;exitDx=0;exitDy=0;entryX=0.5;entryY=1;entryDx=0;entryDy=0;entryPerimeter=0;" parent="1" source="s6JHwugLCeO4JuujkjzI-13" target="s6JHwugLCeO4JuujkjzI-18" edge="1">
          <mxGeometry relative="1" as="geometry" />
        </mxCell>
        <mxCell id="s6JHwugLCeO4JuujkjzI-26" style="edgeStyle=orthogonalEdgeStyle;rounded=0;orthogonalLoop=1;jettySize=auto;html=1;exitX=0.5;exitY=0;exitDx=0;exitDy=0;exitPerimeter=0;entryX=0;entryY=0.5;entryDx=0;entryDy=0;" parent="1" source="s6JHwugLCeO4JuujkjzI-21" target="lATZ4-c1al1JPZafrdWQ-3" edge="1">
          <mxGeometry relative="1" as="geometry" />
        </mxCell>
        <mxCell id="s6JHwugLCeO4JuujkjzI-21" value="return result.ToString();" style="shape=card;whiteSpace=wrap;html=1;direction=west;" parent="1" vertex="1">
          <mxGeometry x="425" y="1700" width="160" height="70" as="geometry" />
        </mxCell>
        <mxCell id="s6JHwugLCeO4JuujkjzI-23" style="edgeStyle=orthogonalEdgeStyle;rounded=0;orthogonalLoop=1;jettySize=auto;html=1;exitX=0.5;exitY=0;exitDx=0;exitDy=0;exitPerimeter=0;entryX=0;entryY=0.5;entryDx=0;entryDy=0;" parent="1" source="s6JHwugLCeO4JuujkjzI-22" target="LNbxUXv6DTY2RKpaFZB2-33" edge="1">
          <mxGeometry relative="1" as="geometry" />
        </mxCell>
        <mxCell id="s6JHwugLCeO4JuujkjzI-22" value="return result.ToString();" style="shape=card;whiteSpace=wrap;html=1;direction=west;" parent="1" vertex="1">
          <mxGeometry x="830" y="1920" width="160" height="70" as="geometry" />
        </mxCell>
        <mxCell id="s6JHwugLCeO4JuujkjzI-24" style="edgeStyle=orthogonalEdgeStyle;rounded=0;orthogonalLoop=1;jettySize=auto;html=1;exitX=0.5;exitY=1;exitDx=0;exitDy=0;entryX=0.5;entryY=1;entryDx=0;entryDy=0;entryPerimeter=0;" parent="1" source="LNbxUXv6DTY2RKpaFZB2-31" target="s6JHwugLCeO4JuujkjzI-22" edge="1">
          <mxGeometry relative="1" as="geometry" />
        </mxCell>
        <mxCell id="s6JHwugLCeO4JuujkjzI-25" value="False" style="edgeStyle=orthogonalEdgeStyle;rounded=0;orthogonalLoop=1;jettySize=auto;html=1;exitX=0;exitY=0.5;exitDx=0;exitDy=0;entryX=0.5;entryY=1;entryDx=0;entryDy=0;entryPerimeter=0;" parent="1" source="LNbxUXv6DTY2RKpaFZB2-36" target="s6JHwugLCeO4JuujkjzI-21" edge="1">
          <mxGeometry relative="1" as="geometry" />
        </mxCell>
        <mxCell id="s6JHwugLCeO4JuujkjzI-43" style="edgeStyle=orthogonalEdgeStyle;rounded=0;orthogonalLoop=1;jettySize=auto;html=1;exitX=0;exitY=0.5;exitDx=0;exitDy=0;entryX=0.5;entryY=0;entryDx=0;entryDy=0;" parent="1" source="s6JHwugLCeO4JuujkjzI-27" target="s6JHwugLCeO4JuujkjzI-33" edge="1">
          <mxGeometry relative="1" as="geometry" />
        </mxCell>
        <mxCell id="s6JHwugLCeO4JuujkjzI-27" value="If total == 0" style="rhombus;whiteSpace=wrap;html=1;" parent="1" vertex="1">
          <mxGeometry x="-285" y="1545" width="180" height="80" as="geometry" />
        </mxCell>
        <mxCell id="s6JHwugLCeO4JuujkjzI-28" value="E" style="triangle;whiteSpace=wrap;html=1;direction=south;" parent="1" vertex="1">
          <mxGeometry x="5" y="1745" width="80" height="60" as="geometry" />
        </mxCell>
        <mxCell id="s6JHwugLCeO4JuujkjzI-32" style="edgeStyle=orthogonalEdgeStyle;rounded=0;orthogonalLoop=1;jettySize=auto;html=1;exitX=0.5;exitY=0;exitDx=0;exitDy=0;exitPerimeter=0;entryX=0;entryY=0.5;entryDx=0;entryDy=0;" parent="1" source="s6JHwugLCeO4JuujkjzI-29" target="s6JHwugLCeO4JuujkjzI-28" edge="1">
          <mxGeometry relative="1" as="geometry" />
        </mxCell>
        <mxCell id="s6JHwugLCeO4JuujkjzI-29" value="&amp;nbsp;return string.Empty;" style="shape=card;whiteSpace=wrap;html=1;direction=west;" parent="1" vertex="1">
          <mxGeometry x="-35" y="1635" width="160" height="70" as="geometry" />
        </mxCell>
        <mxCell id="s6JHwugLCeO4JuujkjzI-31" value="True" style="edgeStyle=orthogonalEdgeStyle;rounded=0;orthogonalLoop=1;jettySize=auto;html=1;exitX=1;exitY=0.5;exitDx=0;exitDy=0;entryX=0.5;entryY=1;entryDx=0;entryDy=0;entryPerimeter=0;" parent="1" source="s6JHwugLCeO4JuujkjzI-27" target="s6JHwugLCeO4JuujkjzI-29" edge="1">
          <mxGeometry relative="1" as="geometry" />
        </mxCell>
        <mxCell id="s6JHwugLCeO4JuujkjzI-33" value="Foreach (var item in string)" style="rhombus;whiteSpace=wrap;html=1;" parent="1" vertex="1">
          <mxGeometry x="-580" y="1775" width="180" height="80" as="geometry" />
        </mxCell>
        <mxCell id="s6JHwugLCeO4JuujkjzI-50" style="edgeStyle=orthogonalEdgeStyle;rounded=0;orthogonalLoop=1;jettySize=auto;html=1;exitX=0.5;exitY=1;exitDx=0;exitDy=0;entryX=0.5;entryY=0;entryDx=0;entryDy=0;" parent="1" source="s6JHwugLCeO4JuujkjzI-38" target="s6JHwugLCeO4JuujkjzI-49" edge="1">
          <mxGeometry relative="1" as="geometry" />
        </mxCell>
        <mxCell id="s6JHwugLCeO4JuujkjzI-38" value="&lt;div&gt;&lt;span style=&quot;background-color: initial;&quot;&gt;result.Append($@&quot;&lt;/span&gt;&lt;span style=&quot;background-color: initial;&quot;&gt;&amp;nbsp;&lt;/span&gt;&amp;nbsp; &amp;nbsp;&amp;nbsp;&lt;br&gt;&amp;nbsp;&amp;lt;!-- Step {counter} --&amp;gt;&lt;/div&gt;&lt;div&gt;&amp;nbsp; &amp;nbsp; &amp;nbsp; &amp;nbsp; &amp;nbsp; &amp;lt;div class=&quot;dish-step&quot;&amp;gt;&lt;/div&gt;&lt;div&gt;&amp;nbsp; &amp;nbsp; &amp;nbsp; &amp;nbsp; &amp;nbsp; &amp;nbsp; &amp;lt;input class=&quot;form-check-input&quot; type=&quot;checkbox&quot; /&amp;gt;&lt;/div&gt;&lt;div&gt;&amp;nbsp; &amp;nbsp; &amp;nbsp; &amp;nbsp; &amp;nbsp; &amp;nbsp; &amp;lt;span class=&quot;dish-step-header&quot;&lt;/div&gt;&lt;div&gt;&amp;nbsp; &amp;nbsp; &amp;nbsp; &amp;nbsp; &amp;nbsp; &amp;nbsp; &amp;nbsp; &amp;gt;&amp;lt;span class=&quot;step-number&quot;&amp;gt;Step {counter} &amp;lt;/span&amp;gt;&amp;lt;span&amp;gt;/{total}&amp;lt;/span&amp;gt;&amp;lt;/span&lt;/div&gt;&lt;div&gt;&amp;nbsp; &amp;nbsp; &amp;nbsp; &amp;nbsp; &amp;nbsp; &amp;nbsp; &amp;gt;&lt;/div&gt;&lt;div&gt;&amp;nbsp; &amp;nbsp; &amp;nbsp; &amp;nbsp; &amp;nbsp; &amp;nbsp; &amp;lt;div class=&quot;dish-step-description&quot;&amp;gt;&lt;/div&gt;&lt;div&gt;&amp;nbsp; &amp;nbsp; &amp;nbsp; &amp;nbsp; &amp;nbsp; &amp;nbsp; &amp;nbsp; &amp;lt;p&amp;gt;&lt;/div&gt;&lt;div&gt;&amp;nbsp; &amp;nbsp; &amp;nbsp; &amp;nbsp; &amp;nbsp; &amp;nbsp; &amp;nbsp; &amp;nbsp;{item}&lt;/div&gt;&lt;div&gt;&amp;nbsp; &amp;nbsp; &amp;nbsp; &amp;nbsp; &amp;nbsp; &amp;nbsp; &amp;nbsp; &amp;lt;/p&amp;gt;&lt;/div&gt;&lt;div&gt;&amp;nbsp; &amp;nbsp; &amp;nbsp; &amp;nbsp; &amp;nbsp; &amp;nbsp; &amp;lt;/div&amp;gt;&lt;/div&gt;&lt;div&gt;&amp;nbsp; &amp;nbsp; &amp;nbsp; &amp;nbsp; &amp;nbsp; &amp;lt;/div&amp;gt;&lt;/div&gt;&lt;div&gt;&quot;);&lt;br&gt;&lt;/div&gt;&lt;div&gt;&lt;br&gt;&lt;/div&gt;" style="rounded=0;whiteSpace=wrap;html=1;align=left;" parent="1" vertex="1">
          <mxGeometry x="-500" y="1975" width="510" height="240" as="geometry" />
        </mxCell>
        <mxCell id="s6JHwugLCeO4JuujkjzI-40" value="TRue" style="edgeStyle=orthogonalEdgeStyle;rounded=0;orthogonalLoop=1;jettySize=auto;html=1;exitX=1;exitY=0.5;exitDx=0;exitDy=0;entryX=0.5;entryY=0;entryDx=0;entryDy=0;" parent="1" source="s6JHwugLCeO4JuujkjzI-33" target="s6JHwugLCeO4JuujkjzI-38" edge="1">
          <mxGeometry relative="1" as="geometry">
            <mxPoint x="-330" y="1875" as="targetPoint" />
          </mxGeometry>
        </mxCell>
        <mxCell id="s6JHwugLCeO4JuujkjzI-41" value="int counter = 1;" style="rounded=0;whiteSpace=wrap;html=1;" parent="1" vertex="1">
          <mxGeometry x="-255" y="1375" width="120" height="45" as="geometry" />
        </mxCell>
        <mxCell id="s6JHwugLCeO4JuujkjzI-42" value="int total = string.Count;" style="rounded=0;whiteSpace=wrap;html=1;" parent="1" vertex="1">
          <mxGeometry x="-270" y="1445" width="150" height="60" as="geometry" />
        </mxCell>
        <mxCell id="s6JHwugLCeO4JuujkjzI-51" style="edgeStyle=orthogonalEdgeStyle;rounded=0;orthogonalLoop=1;jettySize=auto;html=1;exitX=0.5;exitY=1;exitDx=0;exitDy=0;entryX=0.5;entryY=0;entryDx=0;entryDy=0;" parent="1" source="s6JHwugLCeO4JuujkjzI-49" target="s6JHwugLCeO4JuujkjzI-33" edge="1">
          <mxGeometry relative="1" as="geometry">
            <Array as="points">
              <mxPoint x="-245" y="2295" />
              <mxPoint x="50" y="2295" />
              <mxPoint x="50" y="1935" />
              <mxPoint x="-220" y="1935" />
              <mxPoint x="-220" y="1775" />
            </Array>
          </mxGeometry>
        </mxCell>
        <mxCell id="s6JHwugLCeO4JuujkjzI-49" value="counter = counter + 1" style="rounded=0;whiteSpace=wrap;html=1;" parent="1" vertex="1">
          <mxGeometry x="-305" y="2265" width="120" height="60" as="geometry" />
        </mxCell>
        <mxCell id="s6JHwugLCeO4JuujkjzI-53" value="&lt;div&gt;&lt;span style=&quot;background-color: initial;&quot;&gt;result.Append($@&quot;&lt;/span&gt;&lt;span style=&quot;background-color: initial;&quot;&gt;&amp;nbsp;&lt;/span&gt;&lt;span style=&quot;&quot;&gt;&amp;nbsp; &amp;nbsp;&amp;nbsp;&lt;/span&gt;&lt;br&gt;&amp;nbsp;&amp;lt;/div&amp;gt;&lt;/div&gt;&lt;div&gt;&amp;nbsp; &amp;nbsp; &amp;nbsp; &amp;lt;/section&amp;gt;&lt;br&gt;&quot;);&lt;/div&gt;" style="rounded=0;whiteSpace=wrap;html=1;align=left;" parent="1" vertex="1">
          <mxGeometry x="-780" y="1875" width="150" height="90" as="geometry" />
        </mxCell>
        <mxCell id="s6JHwugLCeO4JuujkjzI-54" value="False" style="edgeStyle=orthogonalEdgeStyle;rounded=0;orthogonalLoop=1;jettySize=auto;html=1;exitX=0;exitY=0.5;exitDx=0;exitDy=0;entryX=0.553;entryY=0.025;entryDx=0;entryDy=0;entryPerimeter=0;" parent="1" source="s6JHwugLCeO4JuujkjzI-33" target="s6JHwugLCeO4JuujkjzI-53" edge="1">
          <mxGeometry relative="1" as="geometry" />
        </mxCell>
        <mxCell id="s6JHwugLCeO4JuujkjzI-55" value="E" style="triangle;whiteSpace=wrap;html=1;direction=south;" parent="1" vertex="1">
          <mxGeometry x="-750" y="2260" width="80" height="60" as="geometry" />
        </mxCell>
        <mxCell id="s6JHwugLCeO4JuujkjzI-61" value="False" style="edgeStyle=orthogonalEdgeStyle;rounded=0;orthogonalLoop=1;jettySize=auto;html=1;exitX=0;exitY=0.5;exitDx=0;exitDy=0;entryX=0.5;entryY=0;entryDx=0;entryDy=0;" parent="1" source="LNbxUXv6DTY2RKpaFZB2-6" target="s6JHwugLCeO4JuujkjzI-60" edge="1">
          <mxGeometry relative="1" as="geometry">
            <mxPoint x="165" y="595" as="sourcePoint" />
            <mxPoint x="-195" y="705" as="targetPoint" />
          </mxGeometry>
        </mxCell>
        <mxCell id="s6JHwugLCeO4JuujkjzI-62" value="True" style="edgeStyle=orthogonalEdgeStyle;rounded=0;orthogonalLoop=1;jettySize=auto;html=1;exitX=1;exitY=0.5;exitDx=0;exitDy=0;entryX=0.5;entryY=0;entryDx=0;entryDy=0;" parent="1" source="s6JHwugLCeO4JuujkjzI-60" target="s6JHwugLCeO4JuujkjzI-2" edge="1">
          <mxGeometry relative="1" as="geometry" />
        </mxCell>
        <mxCell id="s6JHwugLCeO4JuujkjzI-65" value="False" style="edgeStyle=orthogonalEdgeStyle;rounded=0;orthogonalLoop=1;jettySize=auto;html=1;exitX=0;exitY=0.5;exitDx=0;exitDy=0;entryX=0.5;entryY=0;entryDx=0;entryDy=0;" parent="1" source="s6JHwugLCeO4JuujkjzI-60" target="s6JHwugLCeO4JuujkjzI-67" edge="1">
          <mxGeometry relative="1" as="geometry">
            <mxPoint x="-1830" y="1089.9999999999998" as="targetPoint" />
          </mxGeometry>
        </mxCell>
        <mxCell id="s6JHwugLCeO4JuujkjzI-60" value="If option == step" style="rhombus;whiteSpace=wrap;html=1;" parent="1" vertex="1">
          <mxGeometry x="-385" y="830" width="130" height="110" as="geometry" />
        </mxCell>
        <mxCell id="s6JHwugLCeO4JuujkjzI-67" value="result.Append($@&quot;&lt;span style=&quot;background-color: initial;&quot;&gt;&amp;nbsp;&lt;/span&gt;&lt;div&gt;&lt;span style=&quot;background-color: initial;&quot;&gt;&lt;div&gt;&amp;lt;section class=&quot;performance-facts&quot;&amp;gt;&lt;/div&gt;&lt;div&gt;&amp;nbsp; &amp;lt;header class=&quot;performance-facts__header&quot;&amp;gt;&lt;/div&gt;&lt;div&gt;&amp;nbsp; &amp;nbsp; &amp;lt;h1 class=&quot;performance-facts__title&quot;&amp;gt;Nutrition Facts&amp;lt;/h1&amp;gt;&lt;/div&gt;&lt;div&gt;&lt;br&gt;&lt;/div&gt;&lt;div&gt;&amp;nbsp; &amp;lt;/header&amp;gt;&lt;/div&gt;&lt;div&gt;&amp;nbsp; &amp;lt;table class=&quot;performance-facts__table&quot;&amp;gt;&lt;/div&gt;&lt;div&gt;&amp;nbsp; &amp;nbsp; &amp;lt;thead&amp;gt;&lt;/div&gt;&lt;div&gt;&amp;nbsp; &amp;nbsp; &amp;nbsp; &amp;lt;tr&amp;gt;&lt;/div&gt;&lt;div&gt;&amp;nbsp; &amp;nbsp; &amp;nbsp; &amp;nbsp; &amp;lt;th colspan=&quot;3&quot; class=&quot;small-info&quot;&amp;gt;&lt;/div&gt;&lt;div&gt;&amp;nbsp; &amp;nbsp; &amp;nbsp; &amp;nbsp; &amp;nbsp; Amount Per 100g&lt;/div&gt;&lt;div&gt;&amp;nbsp; &amp;nbsp; &amp;nbsp; &amp;nbsp; &amp;lt;/th&amp;gt;&lt;/div&gt;&lt;div&gt;&amp;nbsp; &amp;nbsp; &amp;nbsp; &amp;lt;/tr&amp;gt;&lt;/div&gt;&lt;div&gt;&amp;nbsp; &amp;nbsp; &amp;lt;/thead&amp;gt;&lt;/div&gt;&lt;div&gt;&amp;nbsp; &amp;nbsp; &amp;lt;tbody&amp;gt;&lt;/div&gt;&lt;div&gt;&amp;nbsp; &amp;nbsp; &amp;nbsp; &amp;lt;tr&amp;gt;&lt;/div&gt;&lt;div&gt;&amp;nbsp; &amp;nbsp; &amp;nbsp; &amp;nbsp; &amp;lt;th colspan=&quot;2&quot;&amp;gt;&lt;/div&gt;&lt;div&gt;&amp;nbsp; &amp;nbsp; &amp;nbsp; &amp;nbsp; &amp;nbsp; &amp;lt;b&amp;gt;Calories&amp;lt;/b&amp;gt;&lt;/div&gt;&lt;div&gt;&amp;nbsp; &amp;nbsp; &amp;nbsp; &amp;nbsp; &amp;nbsp; string[0]&lt;/div&gt;&lt;div&gt;&amp;nbsp; &amp;nbsp; &amp;nbsp; &amp;nbsp; &amp;lt;/th&amp;gt;&lt;/div&gt;&lt;div&gt;&lt;br&gt;&lt;/div&gt;&lt;div&gt;&amp;nbsp; &amp;nbsp; &amp;nbsp; &amp;lt;/tr&amp;gt;&lt;/div&gt;&lt;div&gt;&amp;nbsp; &amp;nbsp; &amp;nbsp; &amp;lt;tr class=&quot;thick-row&quot;&amp;gt;&lt;/div&gt;&lt;div&gt;&lt;br&gt;&lt;/div&gt;&lt;div&gt;&amp;nbsp; &amp;nbsp; &amp;nbsp; &amp;lt;/tr&amp;gt;&lt;/div&gt;&lt;div&gt;&amp;nbsp; &amp;nbsp; &amp;nbsp; &amp;lt;tr&amp;gt;&lt;/div&gt;&lt;div&gt;&amp;nbsp; &amp;nbsp; &amp;nbsp; &amp;nbsp; &amp;lt;th colspan=&quot;2&quot;&amp;gt;&lt;/div&gt;&lt;div&gt;&amp;nbsp; &amp;nbsp; &amp;nbsp; &amp;nbsp; &amp;nbsp; &amp;lt;b&amp;gt;Total Fat&amp;lt;/b&amp;gt;&lt;/div&gt;&lt;div&gt;&amp;nbsp; &amp;nbsp; &amp;nbsp; &amp;nbsp; &amp;nbsp;&amp;nbsp;string[1]&lt;/div&gt;&lt;div&gt;&amp;nbsp; &amp;nbsp; &amp;nbsp; &amp;nbsp; &amp;lt;/th&amp;gt;&lt;/div&gt;&lt;div&gt;&lt;br&gt;&lt;/div&gt;&lt;div&gt;&amp;nbsp; &amp;nbsp; &amp;nbsp; &amp;lt;/tr&amp;gt;&lt;/div&gt;&lt;div&gt;&amp;nbsp; &amp;nbsp; &amp;nbsp; &amp;lt;tr&amp;gt;&lt;/div&gt;&lt;div&gt;&amp;nbsp; &amp;nbsp; &amp;nbsp; &amp;nbsp; &amp;lt;td class=&quot;blank-cell&quot;&amp;gt;&lt;/div&gt;&lt;div&gt;&amp;nbsp; &amp;nbsp; &amp;nbsp; &amp;nbsp; &amp;lt;/td&amp;gt;&lt;/div&gt;&lt;div&gt;&amp;nbsp; &amp;nbsp; &amp;nbsp; &amp;nbsp; &amp;lt;th&amp;gt;&lt;/div&gt;&lt;div&gt;&amp;nbsp; &amp;nbsp; &amp;nbsp; &amp;nbsp; &amp;nbsp; Saturated Fat&lt;/div&gt;&lt;div&gt;&amp;nbsp; &amp;nbsp; &amp;nbsp; &amp;nbsp; &amp;nbsp; string[2]g&lt;/div&gt;&lt;div&gt;&amp;nbsp; &amp;nbsp; &amp;nbsp; &amp;nbsp; &amp;lt;/th&amp;gt;&lt;/div&gt;&lt;div&gt;&lt;br&gt;&lt;/div&gt;&lt;div&gt;&amp;nbsp; &amp;nbsp; &amp;nbsp; &amp;lt;/tr&amp;gt;&lt;/div&gt;&lt;div&gt;&amp;nbsp; &amp;nbsp; &amp;nbsp; &amp;lt;tr&amp;gt;&lt;/div&gt;&lt;div&gt;&amp;nbsp; &amp;nbsp; &amp;nbsp; &amp;nbsp; &amp;lt;td class=&quot;blank-cell&quot;&amp;gt;&lt;/div&gt;&lt;div&gt;&amp;nbsp; &amp;nbsp; &amp;nbsp; &amp;nbsp; &amp;lt;/td&amp;gt;&lt;/div&gt;&lt;div&gt;&amp;nbsp; &amp;nbsp; &amp;nbsp; &amp;nbsp; &amp;lt;th&amp;gt;&lt;/div&gt;&lt;div&gt;&amp;nbsp; &amp;nbsp; &amp;nbsp; &amp;nbsp; &amp;nbsp; Trans Fat&lt;/div&gt;&lt;div&gt;&amp;nbsp; &amp;nbsp; &amp;nbsp; &amp;nbsp; &amp;nbsp; string[3]g&lt;/div&gt;&lt;div&gt;&amp;nbsp; &amp;nbsp; &amp;nbsp; &amp;nbsp; &amp;lt;/th&amp;gt;&lt;/div&gt;&lt;div&gt;&lt;br&gt;&lt;/div&gt;&lt;div&gt;&amp;nbsp; &amp;nbsp; &amp;nbsp; &amp;lt;/tr&amp;gt;&lt;/div&gt;&lt;div&gt;&amp;nbsp; &amp;nbsp; &amp;nbsp; &amp;lt;tr&amp;gt;&lt;/div&gt;&lt;div&gt;&amp;nbsp; &amp;nbsp; &amp;nbsp; &amp;nbsp; &amp;lt;th colspan=&quot;2&quot;&amp;gt;&lt;/div&gt;&lt;div&gt;&amp;nbsp; &amp;nbsp; &amp;nbsp; &amp;nbsp; &amp;nbsp; &amp;lt;b&amp;gt;Cholesterol&amp;lt;/b&amp;gt;&lt;/div&gt;&lt;div&gt;&amp;nbsp; &amp;nbsp; &amp;nbsp; &amp;nbsp; &amp;nbsp; string[4]mg&lt;/div&gt;&lt;div&gt;&amp;nbsp; &amp;nbsp; &amp;nbsp; &amp;nbsp; &amp;lt;/th&amp;gt;&lt;/div&gt;&lt;div&gt;&lt;br&gt;&lt;/div&gt;&lt;div&gt;&amp;nbsp; &amp;nbsp; &amp;nbsp; &amp;lt;/tr&amp;gt;&lt;/div&gt;&lt;div&gt;&amp;nbsp; &amp;nbsp; &amp;nbsp; &amp;lt;tr&amp;gt;&lt;/div&gt;&lt;div&gt;&amp;nbsp; &amp;nbsp; &amp;nbsp; &amp;nbsp; &amp;lt;th colspan=&quot;2&quot;&amp;gt;&lt;/div&gt;&lt;div&gt;&amp;nbsp; &amp;nbsp; &amp;nbsp; &amp;nbsp; &amp;nbsp; &amp;lt;b&amp;gt;Sodium&amp;lt;/b&amp;gt;&lt;/div&gt;&lt;div&gt;&amp;nbsp; &amp;nbsp; &amp;nbsp; &amp;nbsp; &amp;nbsp; string[5]mg&lt;/div&gt;&lt;div&gt;&amp;nbsp; &amp;nbsp; &amp;nbsp; &amp;nbsp; &amp;lt;/th&amp;gt;&lt;/div&gt;&lt;div&gt;&lt;br&gt;&lt;/div&gt;&lt;div&gt;&amp;nbsp; &amp;nbsp; &amp;nbsp; &amp;lt;/tr&amp;gt;&lt;/div&gt;&lt;div&gt;&amp;nbsp; &amp;nbsp; &amp;nbsp; &amp;lt;tr&amp;gt;&lt;/div&gt;&lt;div&gt;&amp;nbsp; &amp;nbsp; &amp;nbsp; &amp;nbsp; &amp;lt;th colspan=&quot;2&quot;&amp;gt;&lt;/div&gt;&lt;div&gt;&amp;nbsp; &amp;nbsp; &amp;nbsp; &amp;nbsp; &amp;nbsp; &amp;lt;b&amp;gt;Total Carbohydrate&amp;lt;/b&amp;gt;&lt;/div&gt;&lt;div&gt;&amp;nbsp; &amp;nbsp; &amp;nbsp; &amp;nbsp; &amp;nbsp; string[6]g&lt;/div&gt;&lt;div&gt;&amp;nbsp; &amp;nbsp; &amp;nbsp; &amp;nbsp; &amp;lt;/th&amp;gt;&lt;/div&gt;&lt;div&gt;&lt;br&gt;&lt;/div&gt;&lt;div&gt;&amp;nbsp; &amp;nbsp; &amp;nbsp; &amp;lt;/tr&amp;gt;&lt;/div&gt;&lt;div&gt;&amp;nbsp; &amp;nbsp; &amp;nbsp; &amp;lt;tr&amp;gt;&lt;/div&gt;&lt;div&gt;&amp;nbsp; &amp;nbsp; &amp;nbsp; &amp;nbsp; &amp;lt;td class=&quot;blank-cell&quot;&amp;gt;&lt;/div&gt;&lt;div&gt;&amp;nbsp; &amp;nbsp; &amp;nbsp; &amp;nbsp; &amp;lt;/td&amp;gt;&lt;/div&gt;&lt;div&gt;&amp;nbsp; &amp;nbsp; &amp;nbsp; &amp;nbsp; &amp;lt;th&amp;gt;&lt;/div&gt;&lt;div&gt;&amp;nbsp; &amp;nbsp; &amp;nbsp; &amp;nbsp; &amp;nbsp; Dietary Fiber&lt;/div&gt;&lt;div&gt;&amp;nbsp; &amp;nbsp; &amp;nbsp; &amp;nbsp; &amp;nbsp; string[7]g&lt;/div&gt;&lt;div&gt;&amp;nbsp; &amp;nbsp; &amp;nbsp; &amp;nbsp; &amp;lt;/th&amp;gt;&lt;/div&gt;&lt;div&gt;&lt;br&gt;&lt;/div&gt;&lt;div&gt;&amp;nbsp; &amp;nbsp; &amp;nbsp; &amp;lt;/tr&amp;gt;&lt;/div&gt;&lt;div&gt;&amp;nbsp; &amp;nbsp; &amp;nbsp; &amp;lt;tr&amp;gt;&lt;/div&gt;&lt;div&gt;&amp;nbsp; &amp;nbsp; &amp;nbsp; &amp;nbsp; &amp;lt;td class=&quot;blank-cell&quot;&amp;gt;&lt;/div&gt;&lt;div&gt;&amp;nbsp; &amp;nbsp; &amp;nbsp; &amp;nbsp; &amp;lt;/td&amp;gt;&lt;/div&gt;&lt;div&gt;&amp;nbsp; &amp;nbsp; &amp;nbsp; &amp;nbsp; &amp;lt;th&amp;gt;&lt;/div&gt;&lt;div&gt;&amp;nbsp; &amp;nbsp; &amp;nbsp; &amp;nbsp; &amp;nbsp; Sugars&lt;/div&gt;&lt;div&gt;&amp;nbsp; &amp;nbsp; &amp;nbsp; &amp;nbsp; &amp;nbsp; string[8]g&lt;/div&gt;&lt;div&gt;&amp;nbsp; &amp;nbsp; &amp;nbsp; &amp;nbsp; &amp;lt;/th&amp;gt;&lt;/div&gt;&lt;div&gt;&amp;nbsp; &amp;nbsp; &amp;nbsp; &amp;nbsp; &amp;lt;td&amp;gt;&lt;/div&gt;&lt;div&gt;&amp;nbsp; &amp;nbsp; &amp;nbsp; &amp;nbsp; &amp;lt;/td&amp;gt;&lt;/div&gt;&lt;div&gt;&amp;nbsp; &amp;nbsp; &amp;nbsp; &amp;lt;/tr&amp;gt;&lt;/div&gt;&lt;div&gt;&amp;nbsp; &amp;nbsp; &amp;nbsp; &amp;lt;tr class=&quot;thick-end&quot;&amp;gt;&lt;/div&gt;&lt;div&gt;&amp;nbsp; &amp;nbsp; &amp;nbsp; &amp;nbsp; &amp;lt;th colspan=&quot;2&quot;&amp;gt;&lt;/div&gt;&lt;div&gt;&amp;nbsp; &amp;nbsp; &amp;nbsp; &amp;nbsp; &amp;nbsp; &amp;lt;b&amp;gt;Protein&amp;lt;/b&amp;gt;&lt;/div&gt;&lt;div&gt;&amp;nbsp; &amp;nbsp; &amp;nbsp; &amp;nbsp; &amp;nbsp; string[9]g&lt;/div&gt;&lt;div&gt;&amp;nbsp; &amp;nbsp; &amp;nbsp; &amp;nbsp; &amp;lt;/th&amp;gt;&lt;/div&gt;&lt;div&gt;&amp;nbsp; &amp;nbsp; &amp;nbsp; &amp;nbsp; &amp;lt;td&amp;gt;&lt;/div&gt;&lt;div&gt;&amp;nbsp; &amp;nbsp; &amp;nbsp; &amp;nbsp; &amp;lt;/td&amp;gt;&lt;/div&gt;&lt;div&gt;&amp;nbsp; &amp;nbsp; &amp;nbsp; &amp;lt;/tr&amp;gt;&lt;/div&gt;&lt;div&gt;&amp;nbsp; &amp;nbsp; &amp;lt;/tbody&amp;gt;&lt;/div&gt;&lt;div&gt;&amp;nbsp; &amp;lt;/table&amp;gt;&lt;/div&gt;&lt;div&gt;&lt;br&gt;&lt;/div&gt;&lt;div&gt;&amp;lt;/section&amp;gt;&lt;/div&gt;&lt;/span&gt;&lt;/div&gt;&lt;div&gt;&lt;span style=&quot;background-color: initial;&quot;&gt;&lt;br&gt;&lt;/span&gt;&lt;/div&gt;&lt;div&gt;&lt;span style=&quot;background-color: initial;&quot;&gt;&lt;br&gt;&lt;/span&gt;&lt;/div&gt;&lt;div&gt;&lt;span style=&quot;background-color: initial;&quot;&gt;&lt;br&gt;&lt;/span&gt;&lt;/div&gt;&lt;div&gt;&lt;span style=&quot;background-color: initial;&quot;&gt;&quot;);&lt;/span&gt;&lt;div&gt;&lt;div&gt;&lt;br&gt;&lt;/div&gt;&lt;/div&gt;&lt;/div&gt;" style="rounded=0;whiteSpace=wrap;html=1;align=left;" parent="1" vertex="1">
          <mxGeometry x="-1680" y="1180" width="220" height="1630" as="geometry" />
        </mxCell>
        <mxCell id="s6JHwugLCeO4JuujkjzI-72" style="edgeStyle=orthogonalEdgeStyle;rounded=0;orthogonalLoop=1;jettySize=auto;html=1;exitX=0.5;exitY=0;exitDx=0;exitDy=0;exitPerimeter=0;entryX=0;entryY=0.5;entryDx=0;entryDy=0;" parent="1" source="s6JHwugLCeO4JuujkjzI-69" target="s6JHwugLCeO4JuujkjzI-55" edge="1">
          <mxGeometry relative="1" as="geometry" />
        </mxCell>
        <mxCell id="s6JHwugLCeO4JuujkjzI-69" value="return result.ToString();" style="shape=card;whiteSpace=wrap;html=1;direction=west;" parent="1" vertex="1">
          <mxGeometry x="-800" y="2070" width="160" height="70" as="geometry" />
        </mxCell>
        <mxCell id="s6JHwugLCeO4JuujkjzI-71" style="edgeStyle=orthogonalEdgeStyle;rounded=0;orthogonalLoop=1;jettySize=auto;html=1;exitX=0.5;exitY=1;exitDx=0;exitDy=0;entryX=0.5;entryY=1;entryDx=0;entryDy=0;entryPerimeter=0;" parent="1" source="s6JHwugLCeO4JuujkjzI-53" target="s6JHwugLCeO4JuujkjzI-69" edge="1">
          <mxGeometry relative="1" as="geometry" />
        </mxCell>
        <mxCell id="s6JHwugLCeO4JuujkjzI-76" style="edgeStyle=orthogonalEdgeStyle;rounded=0;orthogonalLoop=1;jettySize=auto;html=1;exitX=0.5;exitY=0;exitDx=0;exitDy=0;exitPerimeter=0;entryX=0;entryY=0.5;entryDx=0;entryDy=0;" parent="1" source="s6JHwugLCeO4JuujkjzI-73" target="s6JHwugLCeO4JuujkjzI-75" edge="1">
          <mxGeometry relative="1" as="geometry" />
        </mxCell>
        <mxCell id="s6JHwugLCeO4JuujkjzI-73" value="return result.ToString();" style="shape=card;whiteSpace=wrap;html=1;direction=west;" parent="1" vertex="1">
          <mxGeometry x="-1660" y="2880" width="160" height="70" as="geometry" />
        </mxCell>
        <mxCell id="s6JHwugLCeO4JuujkjzI-74" style="edgeStyle=orthogonalEdgeStyle;rounded=0;orthogonalLoop=1;jettySize=auto;html=1;exitX=0.5;exitY=1;exitDx=0;exitDy=0;entryX=0.5;entryY=1;entryDx=0;entryDy=0;entryPerimeter=0;" parent="1" source="s6JHwugLCeO4JuujkjzI-67" target="s6JHwugLCeO4JuujkjzI-73" edge="1">
          <mxGeometry relative="1" as="geometry" />
        </mxCell>
        <mxCell id="s6JHwugLCeO4JuujkjzI-75" value="E" style="triangle;whiteSpace=wrap;html=1;direction=south;" parent="1" vertex="1">
          <mxGeometry x="-1620" y="3000" width="80" height="60" as="geometry" />
        </mxCell>
        <mxCell id="s6JHwugLCeO4JuujkjzI-77" value="String should look like (250,5,3,8,2...)&lt;br&gt;10 element" style="ellipse;shape=cloud;whiteSpace=wrap;html=1;" parent="1" vertex="1">
          <mxGeometry x="-1520" y="830" width="330" height="240" as="geometry" />
        </mxCell>
        <mxCell id="k1_53MFV-TprOxy7R7du-2" value="&lt;div&gt;result.Append($@&quot;&lt;span style=&quot;background-color: initial;&quot;&gt;&amp;nbsp;&lt;/span&gt;&lt;span style=&quot;background-color: initial;&quot;&gt;&lt;br&gt;&lt;/span&gt;&lt;/div&gt;&lt;div&gt;&lt;span style=&quot;background-color: initial;&quot;&gt;&amp;lt;section class=&quot;dish-ingredients&quot;&amp;gt;&lt;/span&gt;&lt;div&gt;&amp;nbsp; &amp;nbsp; &amp;nbsp; &amp;nbsp; &amp;lt;div class=&quot;dish-ingredients-container&quot;&amp;gt;&lt;/div&gt;&lt;div&gt;&amp;nbsp; &amp;nbsp; &amp;nbsp; &amp;nbsp; &amp;nbsp; &amp;lt;div class=&quot;dish-main-ingredients&quot;&amp;gt;&lt;/div&gt;&lt;div&gt;&amp;nbsp; &amp;nbsp; &amp;nbsp; &amp;nbsp; &amp;nbsp; &amp;nbsp; &amp;lt;ul&amp;gt;&lt;/div&gt;&lt;div&gt;&quot;);&lt;br&gt;&lt;/div&gt;&lt;div&gt;&lt;br&gt;&lt;/div&gt;&lt;/div&gt;" style="rounded=0;whiteSpace=wrap;html=1;align=left;" vertex="1" parent="1">
          <mxGeometry x="810" y="1110" width="350" height="110" as="geometry" />
        </mxCell>
      </root>
    </mxGraphModel>
  </diagram>
</mxfile>
